<svg width="150" height="15" viewBox="0 0 150 15" fill="none" xmlns="http://www.w3.org/2000/svg">
<path d="M13.9959 7.14388C13.3035 3.78696 10.6345 0 10.6345 0C10.6345 0 7.9759 3.77083 7.27829 7.11969C7.17236 7.62767 7.11035 8.12489 7.11035 8.59792C7.11035 10.8556 8.60632 12.6886 9.64756 13.6938L9.96277 13.9841L10.0144 13.0326L10.6345 2.68769L11.1926 13.1777L11.2391 13.9626L12.3217 12.9547C13.2286 11.9011 14.1613 10.3825 14.1613 8.60061C14.1587 8.13295 14.0993 7.6411 13.9959 7.14388Z" fill="white"/>
<path d="M6.91918 7.03956C6.92435 7.01537 6.92952 6.99118 6.93468 6.96968C4.15461 5.24687 0 4.58301 0 4.58301C0 4.58301 0.906883 10.7109 3.35366 13.2562C5.05116 15.022 7.68913 15.0758 9.03266 14.9682L1.80085 6.5504L7.85707 12.1166C7.22148 11.1248 6.74349 9.93689 6.74349 8.59842C6.74349 8.12538 6.80291 7.60128 6.91918 7.03956Z" fill="white"/>
<path d="M14.3241 6.93425C14.3344 6.97725 14.3448 7.02026 14.3525 7.06326C14.4662 7.61424 14.523 8.13296 14.523 8.60062C14.523 9.63807 14.2207 10.697 13.6394 11.7264L19.3106 6.45315L12.0892 14.957C13.4017 15.0726 16.1172 15.0591 17.8508 13.253C20.2976 10.7078 21.2045 4.57983 21.2045 4.57983C21.2045 4.57983 17.1042 5.23832 14.3241 6.93425Z" fill="white"/>
<path d="M27.0644 14.5028C26.3694 14.1722 25.8009 13.7072 25.3591 13.1079L26.7233 11.4415C27.4364 12.4413 28.2916 12.9386 29.2864 12.9386C30.6273 12.9386 31.2965 12.1322 31.2965 10.5223V3.74397H26.7027V1.70401H33.6942V10.3933C33.6942 11.928 33.3247 13.081 32.5884 13.847C31.8494 14.6157 30.7694 14.9973 29.3432 14.9973C28.519 15 27.7594 14.8334 27.0644 14.5028Z" fill="white"/>
<path d="M37.8049 13.4734C36.8101 12.4575 36.3115 10.998 36.3115 9.10053V1.70401H38.7092V9.00646C38.7092 11.5786 39.8046 12.8633 41.993 12.8633C44.1685 12.8633 45.2589 11.5786 45.2589 9.00646V1.70401H47.6204V9.10053C47.6204 10.998 47.1243 12.4548 46.1347 13.4734C45.1452 14.492 43.7577 15 41.975 15C40.1896 15 38.7996 14.492 37.8049 13.4734Z" fill="white"/>
<path d="M51.8835 14.5673C50.956 14.2797 50.2196 13.9007 49.6796 13.425L50.509 11.5329C51.0387 11.9575 51.6872 12.3043 52.4545 12.573C53.2219 12.8418 53.9944 12.9762 54.7695 12.9762C55.7281 12.9762 56.4438 12.8203 56.9192 12.5085C57.392 12.1967 57.6297 11.7855 57.6297 11.2722C57.6297 10.8986 57.4979 10.5895 57.2344 10.3449C56.9709 10.1004 56.635 9.91221 56.2293 9.77514C55.8237 9.63807 55.2708 9.48218 54.5706 9.30748C53.5862 9.07097 52.7904 8.83445 52.1832 8.59524C51.5735 8.35873 51.0516 7.98783 50.6149 7.47985C50.1783 6.97457 49.9612 6.29189 49.9612 5.42915C49.9612 4.70616 50.155 4.04767 50.5426 3.45369C50.9301 2.85971 51.5141 2.38937 52.2943 2.03997C53.0746 1.69057 54.0306 1.51587 55.1623 1.51587C55.9503 1.51587 56.7228 1.61531 57.485 1.8142C58.2472 2.01309 58.9061 2.30067 59.459 2.67695L58.6994 4.56909C58.1335 4.23312 57.5444 3.97511 56.9295 3.80041C56.3146 3.62571 55.7178 3.53701 55.1416 3.53701C54.1934 3.53701 53.4906 3.69827 53.0307 4.02348C52.5708 4.34869 52.3383 4.77873 52.3383 5.31626C52.3383 5.68985 52.47 5.99625 52.7336 6.23277C52.9971 6.46928 53.333 6.65742 53.7386 6.79449C54.1443 6.93156 54.6972 7.08745 55.3974 7.26215C56.3559 7.48792 57.144 7.72175 57.7589 7.96364C58.3738 8.20553 58.8983 8.57912 59.3349 9.07903C59.7716 9.57894 59.9886 10.2535 59.9886 11.1002C59.9886 11.8232 59.7948 12.479 59.4073 13.0649C59.0197 13.6508 58.4332 14.1211 57.6452 14.4705C56.8572 14.8199 55.8986 14.9946 54.767 14.9946C53.7748 15 52.8111 14.8549 51.8835 14.5673Z" fill="white"/>
<path d="M65.0243 3.76278H60.7457V1.70401H71.7006V3.76278H67.422V14.8119H65.0243V3.76278Z" fill="white"/>
<path d="M113.694 11.7775H107.237L105.963 14.8119H103.491L109.301 1.70401H111.663L117.492 14.8119H114.983L113.694 11.7775ZM112.9 9.86921L110.467 4.13906L108.051 9.86921H112.9Z" fill="white"/>
<path d="M122.445 10.1864V14.8119H120.047V10.224L114.975 1.70401H117.538L121.318 8.08996L125.137 1.70401H127.498L122.445 10.1864Z" fill="white"/>
<path d="M134.599 1.70401H136.996V14.8119H134.599V1.70401Z" fill="white"/>
<path d="M143.321 3.76278H139.042V1.70401H149.997V3.76278H145.719V14.8119H143.321V3.76278Z" fill="white"/>
<path d="M89.3938 3.63913C88.9469 2.99678 88.3061 2.50493 87.4664 2.1609C86.6293 1.81688 85.6449 1.64487 84.5158 1.64487H79.1546V14.8119H81.5755V10.2052H84.5184C85.6475 10.2052 86.6319 10.0331 87.469 9.68912C88.3061 9.3451 88.9494 8.85056 89.3964 8.20283C89.8434 7.5551 90.0656 6.79717 90.0656 5.92636C90.063 5.04211 89.8408 4.28149 89.3938 3.63913ZM87.7842 6.00699C87.7842 7.33739 86.7094 8.19746 85.0222 8.19746H81.5704V3.79771H85.0041C86.7507 3.79771 87.7868 4.56639 87.7868 5.96936V6.00699H87.7842Z" fill="white"/>
<path d="M91.6081 1.70132H97.5946C99.2817 1.70132 100.607 2.1878 101.47 3.01292C102.181 3.72516 102.584 4.6981 102.584 5.84037V5.878C102.584 8.03084 101.261 9.32362 99.3799 9.84772L103.005 14.8119H100.222L96.9228 10.2428H96.884H93.967V14.8119H91.6081V1.70132ZM97.4214 8.20016C99.1086 8.20016 100.183 7.33741 100.183 6.00969V5.97206C100.183 4.5664 99.1474 3.80041 97.4008 3.80041H93.967V8.20285H97.4214V8.20016Z" fill="white"/>
</svg>
