<?xml version="1.0" encoding="UTF-8" standalone="no"?>
<svg
   width="30"
   height="29"
   viewBox="0 0 30 29"
   fill="none"
   version="1.1"
   id="svg12"
   sodipodi:docname="acc-minus-icon.svg"
   inkscape:version="1.2.1 (9c6d41e4, 2022-07-14)"
   xmlns:inkscape="http://www.inkscape.org/namespaces/inkscape"
   xmlns:sodipodi="http://sodipodi.sourceforge.net/DTD/sodipodi-0.dtd"
   xmlns="http://www.w3.org/2000/svg"
   xmlns:svg="http://www.w3.org/2000/svg">
  <defs
     id="defs16" />
  <sodipodi:namedview
     id="namedview14"
     pagecolor="#ffffff"
     bordercolor="#000000"
     borderopacity="0.25"
     inkscape:showpageshadow="2"
     inkscape:pageopacity="0.0"
     inkscape:pagecheckerboard="0"
     inkscape:deskcolor="#d1d1d1"
     showgrid="false"
     inkscape:zoom="8.137931"
     inkscape:cx="15.175847"
     inkscape:cy="14.5"
     inkscape:window-width="1309"
     inkscape:window-height="456"
     inkscape:window-x="0"
     inkscape:window-y="23"
     inkscape:window-maximized="0"
     inkscape:current-layer="svg12" />
  <path
     style="color:#000000;fill:#44578f;stroke-linecap:round;stroke-linejoin:round;-inkscape-stroke:none"
     d="M 15,0.16601562 C 7.0957964,0.16601562 0.66601563,6.5957492 0.66601562,14.5 0.66601563,22.404232 7.0957992,28.833984 15,28.833984 22.904229,28.833984 29.333984,22.404238 29.333984,14.5 29.333984,6.5957438 22.904231,0.16601562 15,0.16601562 Z m 0,1.99999998 c 6.823354,0 12.333984,5.5106154 12.333984,12.3339844 0,6.823348 -5.510627,12.333984 -12.333984,12.333984 C 8.1766756,26.833984 2.6660156,21.323353 2.6660156,14.5 2.6660156,7.6766255 8.1766783,2.1660156 15,2.1660156 Z M 9.6660156,13.5 a 1,1 0 0 0 -1,1 1,1 0 0 0 1,1 H 15 20.333984 a 1,1 0 0 0 1,-1 1,1 0 0 0 -1,-1 H 15 Z"
     id="path10" />
</svg>
