<?xml version="1.0" encoding="UTF-8" standalone="no"?>
<svg
   width="24"
   height="24"
   viewBox="0 0 24 24"
   fill="none"
   version="1.1"
   id="svg686"
   sodipodi:docname="buy-cart.svg"
   inkscape:version="1.2.1 (9c6d41e4, 2022-07-14)"
   xmlns:inkscape="http://www.inkscape.org/namespaces/inkscape"
   xmlns:sodipodi="http://sodipodi.sourceforge.net/DTD/sodipodi-0.dtd"
   xmlns="http://www.w3.org/2000/svg"
   xmlns:svg="http://www.w3.org/2000/svg">
  <defs
     id="defs690" />
  <sodipodi:namedview
     id="namedview688"
     pagecolor="#ffffff"
     bordercolor="#000000"
     borderopacity="0.25"
     inkscape:showpageshadow="2"
     inkscape:pageopacity="0.0"
     inkscape:pagecheckerboard="0"
     inkscape:deskcolor="#d1d1d1"
     showgrid="false"
     inkscape:zoom="9.8333333"
     inkscape:cx="12.050847"
     inkscape:cy="12"
     inkscape:window-width="1309"
     inkscape:window-height="456"
     inkscape:window-x="0"
     inkscape:window-y="23"
     inkscape:window-maximized="0"
     inkscape:current-layer="svg686" />
  <path
     fill-rule="evenodd"
     clip-rule="evenodd"
     d="M14.1215 11.2332H16.8893C17.309 11.2332 17.6387 10.8862 17.6387 10.4678C17.6387 10.0392 17.309 9.70239 16.8893 9.70239H14.1215C13.7018 9.70239 13.3721 10.0392 13.3721 10.4678C13.3721 10.8862 13.7018 11.2332 14.1215 11.2332ZM20.1766 5.92749C20.7861 5.92749 21.1858 6.1418 21.5855 6.61123C21.9852 7.08067 22.0551 7.7542 21.9652 8.36549L21.0159 15.06C20.8361 16.3469 19.7569 17.2949 18.4879 17.2949H7.58639C6.25742 17.2949 5.15828 16.255 5.04837 14.908L4.12908 3.7834L2.62026 3.51807C2.22057 3.44664 1.94079 3.04864 2.01073 2.64043C2.08068 2.22305 2.47038 1.94649 2.88006 2.00874L5.2632 2.3751C5.60293 2.43735 5.85274 2.72207 5.88272 3.06905L6.07257 5.35499C6.10254 5.68257 6.36234 5.92749 6.68209 5.92749H20.1766ZM7.42604 18.908C6.5867 18.908 5.90723 19.6019 5.90723 20.4591C5.90723 21.3062 6.5867 22.0001 7.42604 22.0001C8.2554 22.0001 8.93487 21.3062 8.93487 20.4591C8.93487 19.6019 8.2554 18.908 7.42604 18.908ZM18.6673 18.908C17.8279 18.908 17.1484 19.6019 17.1484 20.4591C17.1484 21.3062 17.8279 22.0001 18.6673 22.0001C19.4966 22.0001 20.1761 21.3062 20.1761 20.4591C20.1761 19.6019 19.4966 18.908 18.6673 18.908Z"
     fill="#5EA331"
     id="path695" />
</svg>
