<?xml version="1.0" encoding="UTF-8" standalone="no"?>
<svg
   width="22"
   height="21"
   viewBox="0 0 22 21"
   fill="none"
   version="1.1"
   id="svg781"
   sodipodi:docname="buy.svg"
   inkscape:version="1.2.1 (9c6d41e4, 2022-07-14)"
   xmlns:inkscape="http://www.inkscape.org/namespaces/inkscape"
   xmlns:sodipodi="http://sodipodi.sourceforge.net/DTD/sodipodi-0.dtd"
   xmlns="http://www.w3.org/2000/svg"
   xmlns:svg="http://www.w3.org/2000/svg">
  <defs
     id="defs785" />
  <sodipodi:namedview
     id="namedview783"
     pagecolor="#ffffff"
     bordercolor="#000000"
     borderopacity="0.25"
     inkscape:showpageshadow="2"
     inkscape:pageopacity="0.0"
     inkscape:pagecheckerboard="0"
     inkscape:deskcolor="#d1d1d1"
     showgrid="false"
     inkscape:zoom="11.238095"
     inkscape:cx="11.07839"
     inkscape:cy="10.5"
     inkscape:window-width="1309"
     inkscape:window-height="456"
     inkscape:window-x="0"
     inkscape:window-y="23"
     inkscape:window-maximized="0"
     inkscape:current-layer="svg781" />
  <path
     style="color:#000000;clip-rule:evenodd;fill:#171b27;fill-rule:evenodd;stroke-linecap:round;stroke-linejoin:round;-inkscape-stroke:none"
     d="m 6.4199219,16.820312 c -0.9638632,0 -1.7636719,0.803342 -1.7636719,1.765625 0,0.962284 0.8013885,1.763672 1.7636719,1.763672 0.9622834,0 1.765625,-0.799808 1.765625,-1.763672 0,-0.963863 -0.8017618,-1.765625 -1.765625,-1.765625 z m 0,1.529297 c 0.1182842,0 0.2363281,0.118044 0.2363281,0.236328 0,0.118285 -0.1164641,0.234375 -0.2363281,0.234375 -0.119864,0 -0.234375,-0.11451 -0.234375,-0.234375 0,-0.119864 0.1160907,-0.236328 0.234375,-0.236328 z"
     id="path773" />
  <path
     style="color:#000000;clip-rule:evenodd;fill:#171b27;fill-rule:evenodd;stroke-linecap:round;stroke-linejoin:round;-inkscape-stroke:none"
     d="m 17.675781,16.820312 c -0.963863,0 -1.765625,0.801762 -1.765625,1.765625 0,0.963864 0.803342,1.763672 1.765625,1.763672 0.962284,0 1.763672,-0.799808 1.763672,-1.763672 0,-0.963863 -0.799809,-1.765625 -1.763672,-1.765625 z m 0,1.529297 c 0.118284,0 0.234375,0.116464 0.234375,0.236328 0,0.119865 -0.114511,0.234375 -0.234375,0.234375 -0.119864,0 -0.236328,-0.11451 -0.236328,-0.234375 0,-0.119864 0.118044,-0.236328 0.236328,-0.236328 z"
     id="path775" />
  <path
     style="color:#000000;fill:#171b27;stroke-linecap:round;stroke-linejoin:round;-inkscape-stroke:none"
     d="M 1.9199219,0.265625 A 1,1 0 0 0 0.765625,1.0800781 1,1 0 0 0 1.5800781,2.234375 L 2.8984375,2.4628906 3.796875,13.166016 c 0.1204481,1.443832 1.3446646,2.570312 2.7929687,2.570312 H 17.501953 c 1.385582,0 2.576164,-1.03092 2.775391,-2.402344 L 21.226562,6.7753906 C 21.4281,5.3818543 20.315981,4.0996094 18.908203,4.0996094 H 5.0429687 L 4.8261719,1.5253906 A 1.0001,1.0001 0 0 0 4,0.625 Z M 5.2109375,6.0996094 H 18.908203 c 0.226221,0 0.370353,0.1642098 0.337891,0.3886718 l -0.949219,6.5585938 c -0.05877,0.404575 -0.388506,0.689453 -0.794922,0.689453 H 6.5898437 C 6.1621498,13.736328 5.8246143,13.426165 5.7890625,13 Z"
     id="path777" />
  <path
     style="color:#000000;fill:#171b27;stroke-linecap:round;stroke-linejoin:round;-inkscape-stroke:none"
     d="m 13.125,7.7949219 a 1,1 0 0 0 -1,1 1,1 0 0 0 1,1 h 2.773438 a 1,1 0 0 0 0.999999,-1 1,1 0 0 0 -0.999999,-1 z"
     id="path779" />
</svg>
