<?xml version="1.0" encoding="UTF-8" standalone="no"?>
<svg
   width="24"
   height="24"
   viewBox="0 0 24 24"
   fill="none"
   version="1.1"
   id="svg142"
   sodipodi:docname="double-arrow-right.svg"
   inkscape:version="1.2.1 (9c6d41e4, 2022-07-14)"
   xmlns:inkscape="http://www.inkscape.org/namespaces/inkscape"
   xmlns:sodipodi="http://sodipodi.sourceforge.net/DTD/sodipodi-0.dtd"
   xmlns="http://www.w3.org/2000/svg"
   xmlns:svg="http://www.w3.org/2000/svg">
  <defs
     id="defs146" />
  <sodipodi:namedview
     id="namedview144"
     pagecolor="#ffffff"
     bordercolor="#000000"
     borderopacity="0.25"
     inkscape:showpageshadow="2"
     inkscape:pageopacity="0.0"
     inkscape:pagecheckerboard="0"
     inkscape:deskcolor="#d1d1d1"
     showgrid="false"
     inkscape:zoom="9.8333333"
     inkscape:cx="12.050847"
     inkscape:cy="12"
     inkscape:window-width="1309"
     inkscape:window-height="456"
     inkscape:window-x="0"
     inkscape:window-y="23"
     inkscape:window-maximized="0"
     inkscape:current-layer="svg142" />
  <path
     style="color:#000000;fill:#737989;stroke-linecap:round;stroke-linejoin:round;-inkscape-stroke:none"
     d="m 6.9765625,2.46875 a 0.75,0.75 0 0 0 -0.00195,1.0605469 L 15.439453,12.025391 6.9707031,20.46875 a 0.75,0.75 0 0 0 -0.00195,1.060547 0.75,0.75 0 0 0 1.0605469,0.002 l 9.0000001,-8.972656 a 0.750075,0.750075 0 0 0 0.002,-1.060547 L 8.0371094,2.4707031 A 0.75,0.75 0 0 0 6.9765625,2.46875 Z"
     id="path138" />
  <path
     style="color:#000000;fill:#737989;stroke-linecap:round;stroke-linejoin:round;-inkscape-stroke:none"
     d="m 8,7.25 a 0.75,0.75 0 0 0 -0.53125,0.21875 0.75,0.75 0 0 0 0,1.0625 L 10.9375,12 7.46875,15.46875 a 0.75,0.75 0 0 0 0,1.0625 0.75,0.75 0 0 0 1.0625,0 l 4,-4 a 0.750075,0.750075 0 0 0 0,-1.0625 l -4,-4 A 0.75,0.75 0 0 0 8,7.25 Z"
     id="path140" />
</svg>
