<?xml version="1.0" encoding="UTF-8" standalone="no"?>
<svg
   width="24"
   height="24"
   viewBox="0 0 24 24"
   fill="none"
   version="1.1"
   id="svg152"
   sodipodi:docname="double-arrow-left.svg"
   inkscape:version="1.2.1 (9c6d41e4, 2022-07-14)"
   xmlns:inkscape="http://www.inkscape.org/namespaces/inkscape"
   xmlns:sodipodi="http://sodipodi.sourceforge.net/DTD/sodipodi-0.dtd"
   xmlns="http://www.w3.org/2000/svg"
   xmlns:svg="http://www.w3.org/2000/svg">
  <defs
     id="defs156" />
  <sodipodi:namedview
     id="namedview154"
     pagecolor="#ffffff"
     bordercolor="#000000"
     borderopacity="0.25"
     inkscape:showpageshadow="2"
     inkscape:pageopacity="0.0"
     inkscape:pagecheckerboard="0"
     inkscape:deskcolor="#d1d1d1"
     showgrid="false"
     inkscape:zoom="9.8333333"
     inkscape:cx="12.050847"
     inkscape:cy="12"
     inkscape:window-width="1309"
     inkscape:window-height="456"
     inkscape:window-x="0"
     inkscape:window-y="23"
     inkscape:window-maximized="0"
     inkscape:current-layer="svg152" />
  <path
     style="color:#000000;fill:#737989;stroke-linecap:round;stroke-linejoin:round;-inkscape-stroke:none"
     d="m 16.5,2.25 a 0.75,0.75 0 0 0 -0.53125,0.2207031 l -9,9.0019529 a 0.750075,0.750075 0 0 0 0,1.060547 l 8.996094,8.996094 a 0.75,0.75 0 0 0 1.060547,0.002 0.75,0.75 0 0 0 0,-1.060547 L 8.5605469,12.001953 17.03125,3.5292969 A 0.75,0.75 0 0 0 17.029297,2.46875 0.75,0.75 0 0 0 16.5,2.25 Z"
     id="path148" />
  <path
     style="color:#000000;fill:#737989;stroke-linecap:round;stroke-linejoin:round;-inkscape-stroke:none"
     d="m 16,7.25 a 0.75,0.75 0 0 0 -0.53125,0.21875 l -4,4 a 0.750075,0.750075 0 0 0 0,1.0625 l 4,4 a 0.75,0.75 0 0 0 1.0625,0 0.75,0.75 0 0 0 0,-1.0625 L 13.0625,12 16.53125,8.53125 a 0.75,0.75 0 0 0 0,-1.0625 A 0.75,0.75 0 0 0 16,7.25 Z"
     id="path150" />
</svg>
