<?xml version="1.0" encoding="UTF-8" standalone="no"?>
<svg
   width="25"
   height="24"
   viewBox="0 0 25 24"
   fill="none"
   version="1.1"
   id="svg1061"
   sodipodi:docname="info-circle.svg"
   inkscape:version="1.2.1 (9c6d41e4, 2022-07-14)"
   xmlns:inkscape="http://www.inkscape.org/namespaces/inkscape"
   xmlns:sodipodi="http://sodipodi.sourceforge.net/DTD/sodipodi-0.dtd"
   xmlns="http://www.w3.org/2000/svg"
   xmlns:svg="http://www.w3.org/2000/svg">
  <defs
     id="defs1065" />
  <sodipodi:namedview
     id="namedview1063"
     pagecolor="#ffffff"
     bordercolor="#000000"
     borderopacity="0.25"
     inkscape:showpageshadow="2"
     inkscape:pageopacity="0.0"
     inkscape:pagecheckerboard="0"
     inkscape:deskcolor="#d1d1d1"
     showgrid="false"
     inkscape:zoom="9.8333333"
     inkscape:cx="12.559322"
     inkscape:cy="12"
     inkscape:window-width="1309"
     inkscape:window-height="456"
     inkscape:window-x="0"
     inkscape:window-y="23"
     inkscape:window-maximized="0"
     inkscape:current-layer="svg1061" />
  <path
     style="color:#000000;clip-rule:evenodd;fill:#438d13;fill-rule:evenodd;stroke-linecap:round;stroke-linejoin:round;-inkscape-stroke:none"
     d="m 12.5,2 c -5.5134369,0 -10,4.4865999 -10,10 0,5.513437 4.4865631,10 10,10 5.514358,0 10,-4.486661 10,-10 0,-5.5133022 -4.485642,-10 -10,-10 z m 0,1.5 c 4.703632,0 8.5,3.7973924 8.5,8.5 0,4.702651 -3.796368,8.5 -8.5,8.5 C 7.7974471,20.5 4,16.702553 4,12 4,7.2974903 7.7974471,3.5 12.5,3.5 Z"
     id="path1055" />
  <path
     style="color:#000000;fill:#438d13;stroke-linecap:round;stroke-linejoin:round;-inkscape-stroke:none"
     d="m 12.494141,7.4550781 a 0.75,0.75 0 0 0 -0.75,0.75 v 4.4179689 a 0.75,0.75 0 0 0 0.75,0.75 0.75,0.75 0 0 0 0.75,-0.75 V 8.2050781 a 0.75,0.75 0 0 0 -0.75,-0.75 z"
     id="path1057" />
  <path
     style="color:#000000;fill:#438d13;stroke-linecap:round;stroke-linejoin:round;-inkscape-stroke:none"
     d="m 12.494141,15.046875 a 0.75,0.75 0 0 0 -0.75,0.75 0.75,0.75 0 0 0 0.75,0.75 h 0.01172 a 0.75,0.75 0 0 0 0.75,-0.75 0.75,0.75 0 0 0 -0.75,-0.75 z"
     id="path1059" />
</svg>
