<?xml version="1.0" encoding="UTF-8" standalone="no"?>
<svg
   width="12"
   height="16"
   viewBox="0 0 12 16"
   fill="none"
   version="1.1"
   id="svg1229"
   sodipodi:docname="play.svg"
   inkscape:version="1.2.1 (9c6d41e4, 2022-07-14)"
   xmlns:inkscape="http://www.inkscape.org/namespaces/inkscape"
   xmlns:sodipodi="http://sodipodi.sourceforge.net/DTD/sodipodi-0.dtd"
   xmlns="http://www.w3.org/2000/svg"
   xmlns:svg="http://www.w3.org/2000/svg">
  <defs
     id="defs1233" />
  <sodipodi:namedview
     id="namedview1231"
     pagecolor="#ffffff"
     bordercolor="#000000"
     borderopacity="0.25"
     inkscape:showpageshadow="2"
     inkscape:pageopacity="0.0"
     inkscape:pagecheckerboard="0"
     inkscape:deskcolor="#d1d1d1"
     showgrid="false"
     inkscape:zoom="14.75"
     inkscape:cx="6.0677966"
     inkscape:cy="8"
     inkscape:window-width="1309"
     inkscape:window-height="456"
     inkscape:window-x="0"
     inkscape:window-y="23"
     inkscape:window-maximized="0"
     inkscape:current-layer="svg1229" />
  <path
     fill-rule="evenodd"
     clip-rule="evenodd"
     d="M11.1729 9.31235C9.59438 11.0143 5.29847 13.8941 3.10071 14.8187C2.74993 14.9659 1.85568 15.2777 1.66297 15.282C1.25373 15.295 0.859648 15.0655 0.669103 14.6974C0.595484 14.5545 0.378956 13.6213 0.309667 13.2055C0.103966 11.941 -0.00213279 9.97709 3.24878e-05 8.00236C-0.00213279 5.93019 0.112627 3.87317 0.342146 2.62164C0.402774 2.28386 0.580327 1.50652 0.632294 1.38094C0.729731 1.14709 0.907284 0.963037 1.12165 0.848278C1.28621 0.759501 1.47459 0.711865 1.66297 0.718361C1.85568 0.722691 2.63951 0.997682 2.908 1.10378C5.02564 1.92659 9.5056 4.91034 11.1512 6.66421C11.2984 6.82228 11.7034 7.24667 11.7705 7.33329C11.9242 7.52816 12 7.76418 12 8.00236C12 8.22321 11.9329 8.4484 11.7943 8.63678C11.7228 8.73422 11.3093 9.16728 11.1729 9.31235Z"
     fill="#4D951E"
     id="path1351" />
</svg>
