<?xml version="1.0" encoding="UTF-8" standalone="no"?>
<svg
   width="56"
   height="53"
   viewBox="0 0 56 53"
   fill="none"
   version="1.1"
   id="svg1237"
   sodipodi:docname="quotes1.svg"
   inkscape:version="1.2.1 (9c6d41e4, 2022-07-14)"
   xmlns:inkscape="http://www.inkscape.org/namespaces/inkscape"
   xmlns:sodipodi="http://sodipodi.sourceforge.net/DTD/sodipodi-0.dtd"
   xmlns="http://www.w3.org/2000/svg"
   xmlns:svg="http://www.w3.org/2000/svg">
  <defs
     id="defs1241" />
  <sodipodi:namedview
     id="namedview1239"
     pagecolor="#ffffff"
     bordercolor="#000000"
     borderopacity="0.25"
     inkscape:showpageshadow="2"
     inkscape:pageopacity="0.0"
     inkscape:pagecheckerboard="0"
     inkscape:deskcolor="#d1d1d1"
     showgrid="false"
     inkscape:zoom="4.4528302"
     inkscape:cx="28.184322"
     inkscape:cy="26.5"
     inkscape:window-width="1309"
     inkscape:window-height="456"
     inkscape:window-x="0"
     inkscape:window-y="23"
     inkscape:window-maximized="0"
     inkscape:current-layer="svg1237" />
  <path
     d="M12.7536 52.7415C8.59285 52.7415 5.42707 50.9579 3.25624 47.3909C1.08541 43.8238 0 38.9319 0 32.715C0 25.479 1.58289 19.1092 4.74868 13.6058C7.91447 8.10231 12.7536 3.56706 19.2661 0L23.6077 9.78393C19.5374 12.0261 16.4621 14.7268 14.3817 17.8862C12.3918 20.9437 11.3968 24.7146 11.3968 29.1989C11.5777 29.097 11.8039 29.046 12.0752 29.046C12.3466 29.046 12.5727 29.046 12.7536 29.046C15.648 29.046 18.0902 30.0652 20.0801 32.1035C22.1605 34.0399 23.2007 36.7407 23.2007 40.2058C23.2007 43.9767 22.2057 47.0342 20.2158 49.3783C18.2259 51.6204 15.7385 52.7415 12.7536 52.7415ZM44.909 52.7415C40.7482 52.7415 37.5824 50.9579 35.4116 47.3909C33.2408 43.8238 32.1554 38.9319 32.1554 32.715C32.1554 25.479 33.7383 19.1092 36.904 13.6058C40.0698 8.10231 44.909 3.56706 51.4214 0L55.7631 9.78393C51.6928 12.0261 48.6175 14.7268 46.5371 17.8862C44.5472 20.9437 43.5522 24.7146 43.5522 29.1989C43.7331 29.097 43.9592 29.046 44.2306 29.046C44.5019 29.046 44.7281 29.046 44.909 29.046C47.8034 29.046 50.2456 30.0652 52.2355 32.1035C54.3159 34.0399 55.3561 36.7407 55.3561 40.2058C55.3561 43.9767 54.3611 47.0342 52.3712 49.3783C50.3813 51.6204 47.8938 52.7415 44.909 52.7415Z"
     fill="#1B75BB"
     id="path1326" />
</svg>
