<?xml version="1.0" encoding="UTF-8" standalone="no"?>
<svg
   width="24"
   height="24"
   viewBox="0 0 24 24"
   fill="none"
   version="1.1"
   id="svg1255"
   sodipodi:docname="search1.svg"
   inkscape:version="1.2.1 (9c6d41e4, 2022-07-14)"
   xmlns:inkscape="http://www.inkscape.org/namespaces/inkscape"
   xmlns:sodipodi="http://sodipodi.sourceforge.net/DTD/sodipodi-0.dtd"
   xmlns="http://www.w3.org/2000/svg"
   xmlns:svg="http://www.w3.org/2000/svg">
  <defs
     id="defs1259" />
  <sodipodi:namedview
     id="namedview1257"
     pagecolor="#ffffff"
     bordercolor="#000000"
     borderopacity="0.25"
     inkscape:showpageshadow="2"
     inkscape:pageopacity="0.0"
     inkscape:pagecheckerboard="0"
     inkscape:deskcolor="#d1d1d1"
     showgrid="false"
     inkscape:zoom="9.8333333"
     inkscape:cx="12.050847"
     inkscape:cy="12"
     inkscape:window-width="1309"
     inkscape:window-height="456"
     inkscape:window-x="0"
     inkscape:window-y="23"
     inkscape:window-maximized="0"
     inkscape:current-layer="svg1255" />
  <path
     style="color:#000000;fill:#737989;stroke-linecap:round;stroke-linejoin:round;-inkscape-stroke:none"
     d="m 11.765625,2.0273438 c -5.3695692,0 -9.7382812,4.368712 -9.7382812,9.7382812 0,5.369569 4.368712,9.740234 9.7382812,9.740234 5.369569,0 9.738281,-4.370665 9.738281,-9.740234 0,-5.3695692 -4.368712,-9.7382812 -9.738281,-9.7382812 z m 0,1.5 c 4.55891,0 8.238281,3.6793714 8.238281,8.2382812 0,4.55891 -3.679371,8.240234 -8.238281,8.240234 -4.5589098,0 -8.2382813,-3.681324 -8.2382812,-8.240234 0,-4.5589098 3.6793714,-8.2382812 8.2382812,-8.2382812 z"
     id="circle1251" />
  <path
     style="color:#000000;fill:#737989;stroke-linecap:round;stroke-linejoin:round;-inkscape-stroke:none"
     d="m 17.486328,17.955078 a 0.75,0.75 0 0 0 0.002,1.060547 l 3.523438,3.515625 a 0.75,0.75 0 0 0 1.060547,-0.002 0.75,0.75 0 0 0 0,-1.060547 l -3.525391,-3.513672 a 0.75,0.75 0 0 0 -1.060547,0 z"
     id="path1253" />
</svg>
