<?xml version="1.0" encoding="UTF-8" standalone="no"?>
<svg
   width="24"
   height="24"
   viewBox="0 0 24 24"
   fill="none"
   version="1.1"
   id="svg1565"
   sodipodi:docname="user-circle-icon.svg"
   inkscape:version="1.2.1 (9c6d41e4, 2022-07-14)"
   xmlns:inkscape="http://www.inkscape.org/namespaces/inkscape"
   xmlns:sodipodi="http://sodipodi.sourceforge.net/DTD/sodipodi-0.dtd"
   xmlns="http://www.w3.org/2000/svg"
   xmlns:svg="http://www.w3.org/2000/svg">
  <defs
     id="defs1569" />
  <sodipodi:namedview
     id="namedview1567"
     pagecolor="#ffffff"
     bordercolor="#000000"
     borderopacity="0.25"
     inkscape:showpageshadow="2"
     inkscape:pageopacity="0.0"
     inkscape:pagecheckerboard="0"
     inkscape:deskcolor="#d1d1d1"
     showgrid="false"
     inkscape:zoom="9.8333333"
     inkscape:cx="12.050847"
     inkscape:cy="12"
     inkscape:window-width="1309"
     inkscape:window-height="456"
     inkscape:window-x="0"
     inkscape:window-y="23"
     inkscape:window-maximized="0"
     inkscape:current-layer="svg1565" />
  <path
     style="color:#000000;fill:#171b27;stroke-linecap:round;stroke-linejoin:round;-inkscape-stroke:none"
     d="M 12,0.28515625 C 5.542272,0.28515625 0.28515625,5.5422538 0.28515625,12 0.28515625,18.457828 5.5422776,23.714844 12,23.714844 18.457822,23.714844 23.712891,18.457822 23.712891,12 23.712891,5.5422594 18.457828,0.28515625 12,0.28515625 Z m 0,2.00000005 c 5.37696,0 9.712891,4.3379761 9.712891,9.7148437 0,5.376966 -4.335925,9.714844 -9.712891,9.714844 C 6.6231542,21.714844 2.2851562,17.37696 2.2851563,12 2.2851563,6.623138 6.6231598,2.2851563 12,2.2851563 Z"
     id="path1559" />
  <path
     style="color:#000000;fill:#171b27;stroke-linecap:round;stroke-linejoin:round;-inkscape-stroke:none"
     d="m 12,4.4960937 c -2.3547522,0 -4.2851562,1.9303613 -4.2851563,4.2851563 0,2.354809 1.9304115,4.285156 4.2851563,4.285156 2.354745,0 4.285156,-1.930332 4.285156,-4.285156 0,-2.3548097 -1.930404,-4.2851562 -4.285156,-4.2851563 z m 0,2 c 1.273844,0 2.285156,1.0112896 2.285156,2.2851563 0,1.273893 -1.011304,2.285156 -2.285156,2.285156 -1.273852,0 -2.2851563,-1.011249 -2.2851562,-2.285156 0,-1.2738814 1.0113122,-2.2851562 2.2851562,-2.2851563 z"
     id="path1561" />
  <path
     style="color:#000000;fill:#171b27;stroke-linecap:round;stroke-linejoin:round;-inkscape-stroke:none"
     d="m 11.998047,14.746094 c -1.745961,0 -3.439056,0.603895 -4.7910158,1.708984 -1.2359003,1.01014 -2.1176161,2.382319 -2.5253906,3.917969 a 1.0001,1.0001 0 0 0 0.3730469,1.0625 c 1.9423574,1.431509 4.3493634,2.279297 6.9433595,2.279297 2.594078,0 5.001064,-0.84777 6.943359,-2.279297 a 1.0001,1.0001 0 0 0 0.373047,-1.0625 c -0.407765,-1.53566 -1.289564,-2.907833 -2.525391,-3.917969 -1.35197,-1.105079 -3.044969,-1.708984 -4.791015,-1.708984 z m 0,2 c 1.285151,0 2.530364,0.444493 3.525391,1.257812 0.7073,0.578131 1.196311,1.346253 1.546874,2.177735 -1.485789,0.923744 -3.189145,1.533203 -5.072265,1.533203 -1.882875,0 -3.5845452,-0.609592 -5.0703126,-1.533203 0.3505666,-0.831482 0.8375857,-1.599607 1.5449219,-2.177735 0.9949978,-0.813309 2.2403547,-1.257812 3.5253907,-1.257812 z"
     id="path1563" />
</svg>
