<svg width="58" height="58" viewBox="0 0 58 58" fill="none" xmlns="http://www.w3.org/2000/svg">
<rect width="58" height="58" rx="8" fill="white" fill-opacity="0.7"/>
<path fill-rule="evenodd" clip-rule="evenodd" d="M31.1215 30.2332H33.8893C34.309 30.2332 34.6387 29.8862 34.6387 29.4678C34.6387 29.0392 34.309 28.7024 33.8893 28.7024H31.1215C30.7018 28.7024 30.3721 29.0392 30.3721 29.4678C30.3721 29.8862 30.7018 30.2332 31.1215 30.2332ZM37.1766 24.9275C37.7861 24.9275 38.1858 25.1418 38.5855 25.6112C38.9852 26.0807 39.0551 26.7542 38.9652 27.3655L38.0159 34.06C37.8361 35.3469 36.7569 36.2949 35.4879 36.2949H24.5864C23.2574 36.2949 22.1583 35.255 22.0484 33.908L21.1291 22.7834L19.6203 22.5181C19.2206 22.4466 18.9408 22.0486 19.0107 21.6404C19.0807 21.223 19.4704 20.9465 19.8801 21.0087L22.2632 21.3751C22.6029 21.4374 22.8527 21.7221 22.8827 22.069L23.0726 24.355C23.1025 24.6826 23.3623 24.9275 23.6821 24.9275H37.1766ZM24.426 37.908C23.5867 37.908 22.9072 38.6019 22.9072 39.4591C22.9072 40.3062 23.5867 41.0001 24.426 41.0001C25.2554 41.0001 25.9349 40.3062 25.9349 39.4591C25.9349 38.6019 25.2554 37.908 24.426 37.908ZM35.6673 37.908C34.8279 37.908 34.1484 38.6019 34.1484 39.4591C34.1484 40.3062 34.8279 41.0001 35.6673 41.0001C36.4966 41.0001 37.1761 40.3062 37.1761 39.4591C37.1761 38.6019 36.4966 37.908 35.6673 37.908Z" fill="#5EA331"/>
</svg>
