<svg width="22" height="21" viewBox="0 0 22 21" fill="none" xmlns="http://www.w3.org/2000/svg">
<path fill-rule="evenodd" clip-rule="evenodd" d="M6.42025 17.8203C6.84225 17.8203 7.18525 18.1633 7.18525 18.5853C7.18525 19.0073 6.84225 19.3493 6.42025 19.3493C5.99825 19.3493 5.65625 19.0073 5.65625 18.5853C5.65625 18.1633 5.99825 17.8203 6.42025 17.8203Z" stroke="#171B27" stroke-width="2" stroke-linecap="round" stroke-linejoin="round"/>
<path fill-rule="evenodd" clip-rule="evenodd" d="M17.6752 17.8203C18.0972 17.8203 18.4402 18.1633 18.4402 18.5853C18.4402 19.0073 18.0972 19.3493 17.6752 19.3493C17.2532 19.3493 16.9102 19.0073 16.9102 18.5853C16.9102 18.1633 17.2532 17.8203 17.6752 17.8203Z" stroke="#171B27" stroke-width="2" stroke-linecap="round" stroke-linejoin="round"/>
<path d="M1.75 1.25L3.83 1.61L4.793 13.083C4.871 14.018 5.652 14.736 6.59 14.736H17.502C18.398 14.736 19.158 14.078 19.287 13.19L20.236 6.632C20.353 5.823 19.726 5.099 18.909 5.099H4.164" stroke="#171B27" stroke-width="2" stroke-linecap="round" stroke-linejoin="round"/>
<path d="M13.125 8.79492H15.898" stroke="#171B27" stroke-width="2" stroke-linecap="round" stroke-linejoin="round"/>
</svg>
