<svg width="58" height="58" viewBox="0 0 58 58" fill="none" xmlns="http://www.w3.org/2000/svg">
<rect width="58" height="58" rx="8" fill="white" fill-opacity="0.2"/>
<path d="M28.9994 41.7142C34.9168 41.7142 39.7137 36.9173 39.7137 30.9999C39.7137 25.0826 34.9168 20.2856 28.9994 20.2856C23.0821 20.2856 18.2852 25.0826 18.2852 30.9999C18.2852 36.9173 23.0821 41.7142 28.9994 41.7142Z" stroke="#171B27" stroke-width="2" stroke-linecap="round" stroke-linejoin="round"/>
<path d="M29 31.0669C30.8143 31.0669 32.2852 29.5961 32.2852 27.7817C32.2852 25.9674 30.8143 24.4966 29 24.4966C27.1857 24.4966 25.7148 25.9674 25.7148 27.7817C25.7148 29.5961 27.1857 31.0669 29 31.0669Z" stroke="#171B27" stroke-width="2" stroke-linecap="round" stroke-linejoin="round"/>
<path d="M35.3488 39.6305C33.5718 40.9402 31.3756 41.7142 28.9986 41.7142C26.6217 41.7142 24.4255 40.9402 22.6484 39.6305C23.0024 38.2977 23.7678 37.1065 24.8406 36.2297C26.0141 35.2705 27.4831 34.7466 28.9986 34.7466C30.5142 34.7466 31.9832 35.2705 33.1567 36.2297C34.2294 37.1065 34.9949 38.2977 35.3488 39.6305Z" stroke="#171B27" stroke-width="2" stroke-linecap="round" stroke-linejoin="round"/>
</svg>
