<svg width="24" height="24" viewBox="0 0 24 24" fill="none" xmlns="http://www.w3.org/2000/svg">
<path d="M11.9994 22.7142C17.9168 22.7142 22.7137 17.9173 22.7137 11.9999C22.7137 6.08259 17.9168 1.28564 11.9994 1.28564C6.08211 1.28564 1.28516 6.08259 1.28516 11.9999C1.28516 17.9173 6.08211 22.7142 11.9994 22.7142Z" stroke="#171B27" stroke-width="2" stroke-linecap="round" stroke-linejoin="round"/>
<path d="M12 12.0669C13.8143 12.0669 15.2852 10.5961 15.2852 8.78174C15.2852 6.9674 13.8143 5.49658 12 5.49658C10.1857 5.49658 8.71484 6.9674 8.71484 8.78174C8.71484 10.5961 10.1857 12.0669 12 12.0669Z" stroke="#171B27" stroke-width="2" stroke-linecap="round" stroke-linejoin="round"/>
<path d="M18.3488 20.6305C16.5718 21.9402 14.3756 22.7142 11.9986 22.7142C9.62169 22.7142 7.42552 21.9402 5.64844 20.6305C6.00235 19.2977 6.76784 18.1065 7.8406 17.2297C9.01408 16.2705 10.4831 15.7466 11.9986 15.7466C13.5142 15.7466 14.9832 16.2705 16.1567 17.2297C17.2294 18.1065 17.9949 19.2977 18.3488 20.6305Z" stroke="#171B27" stroke-width="2" stroke-linecap="round" stroke-linejoin="round"/>
</svg>
