<svg width="34" height="28" viewBox="0 0 34 28" fill="none" xmlns="http://www.w3.org/2000/svg">
<path d="M32.9047 4.82935C33.6663 7.79935 33.6663 13.9993 33.6663 13.9993C33.6663 13.9993 33.6663 20.1993 32.9047 23.1693C32.4813 24.811 31.243 26.1027 29.6747 26.5393C26.8263 27.3327 16.9997 27.3327 16.9997 27.3327C16.9997 27.3327 7.17801 27.3327 4.32467 26.5393C2.74967 26.096 1.51301 24.806 1.09467 23.1693C0.333008 20.1993 0.333008 13.9993 0.333008 13.9993C0.333008 13.9993 0.333008 7.79935 1.09467 4.82935C1.51801 3.18768 2.75634 1.89602 4.32467 1.45935C7.17801 0.666015 16.9997 0.666016 16.9997 0.666016C16.9997 0.666016 26.8263 0.666015 29.6747 1.45935C31.2497 1.90268 32.4863 3.19268 32.9047 4.82935ZM13.6663 19.8327L23.6663 13.9993L13.6663 8.16601V19.8327Z" fill="white"/>
</svg>
